<svg version="1.1" id="Layer_1" xmlns="http://www.w3.org/2000/svg" xmlns:xlink="http://www.w3.org/1999/xlink" x="0px" y="0px"
	 width="100%" viewBox="0 0 137 137" enable-background="new 0 0 137 137" xml:space="preserve">
<path fill="#FDFFFE" opacity="1.000000" stroke="none" 
	d="
M138.000000,55.000000 
	C138.000000,82.974892 138.000000,110.449776 138.000000,137.962341 
	C92.400169,137.962341 46.800304,137.962341 1.100217,137.962341 
	C1.100217,92.442039 1.100217,46.883789 1.100217,1.162768 
	C46.666195,1.162768 92.333046,1.162768 138.000000,1.162768 
	C138.000000,18.865938 138.000000,36.682968 138.000000,55.000000 
M21.195490,129.845016 
	C53.349003,129.891907 85.502708,130.014389 117.655899,129.933609 
	C125.907791,129.912888 130.916824,124.720047 130.946579,116.292992 
	C131.056580,85.137741 131.040161,53.981709 130.920090,22.826548 
	C130.909134,19.981401 129.819382,17.140413 129.266830,14.472552 
	C123.269745,20.407232 117.640396,25.977993 111.854301,31.703871 
	C116.051140,41.098156 114.859627,48.498695 108.015907,53.438915 
	C102.043686,57.750034 93.606819,57.104168 88.296593,51.929344 
	C82.965401,46.734089 82.059326,38.270664 86.192177,32.272572 
	C91.118973,25.122217 98.328865,23.844063 107.611603,27.759506 
	C113.529221,21.859705 119.095963,16.309719 124.876350,10.546725 
	C122.742043,10.089579 120.204353,9.081124 117.663231,9.072408 
	C86.174721,8.964389 54.685593,8.956256 23.196892,9.033477 
	C15.109904,9.053309 10.053670,14.100191 10.033692,22.174053 
	C9.955777,53.662750 9.960346,85.151901 10.075611,116.640366 
	C10.085186,119.256134 11.152886,121.868027 11.728964,124.481720 
	C12.245835,124.627151 12.762706,124.772591 13.279577,124.918022 
	C17.861603,120.134468 22.316744,115.219093 27.085056,110.629059 
	C29.132374,108.658272 29.269285,107.259972 28.042984,104.715149 
	C24.415716,97.187881 27.094320,88.815987 34.014595,84.788528 
	C40.364174,81.093201 48.251728,82.261574 53.182484,87.627846 
	C57.937454,92.802811 58.582394,100.877151 54.694710,106.560127 
	C50.403976,112.832253 42.766026,115.041542 35.725048,112.291428 
	C34.144184,111.673958 31.487368,111.047775 30.610689,111.842651 
	C25.222193,116.728310 20.202507,122.020752 14.678644,127.560349 
	C17.014210,128.467560 18.685167,129.116623 21.195490,129.845016 
z"/>
<path fill="#20C440" opacity="1.000000" stroke="none" 
	d="
M20.775806,129.805344 
	C18.685167,129.116623 17.014210,128.467560 14.678644,127.560349 
	C20.202507,122.020752 25.222193,116.728310 30.610689,111.842651 
	C31.487368,111.047775 34.144184,111.673958 35.725048,112.291428 
	C42.766026,115.041542 50.403976,112.832253 54.694710,106.560127 
	C58.582394,100.877151 57.937454,92.802811 53.182484,87.627846 
	C48.251728,82.261574 40.364174,81.093201 34.014595,84.788528 
	C27.094320,88.815987 24.415716,97.187881 28.042984,104.715149 
	C29.269285,107.259972 29.132374,108.658272 27.085056,110.629059 
	C22.316744,115.219093 17.861603,120.134468 13.279577,124.918022 
	C12.762706,124.772591 12.245835,124.627151 11.728964,124.481720 
	C11.152886,121.868027 10.085186,119.256134 10.075611,116.640366 
	C9.960346,85.151901 9.955777,53.662750 10.033692,22.174053 
	C10.053670,14.100191 15.109904,9.053309 23.196892,9.033477 
	C54.685593,8.956256 86.174721,8.964389 117.663231,9.072408 
	C120.204353,9.081124 122.742043,10.089579 124.876350,10.546725 
	C119.095963,16.309719 113.529221,21.859705 107.611603,27.759506 
	C98.328865,23.844063 91.118973,25.122217 86.192177,32.272572 
	C82.059326,38.270664 82.965401,46.734089 88.296593,51.929344 
	C93.606819,57.104168 102.043686,57.750034 108.015907,53.438915 
	C114.859627,48.498695 116.051140,41.098156 111.854301,31.703871 
	C117.640396,25.977993 123.269745,20.407232 129.266830,14.472552 
	C129.819382,17.140413 130.909134,19.981401 130.920090,22.826548 
	C131.040161,53.981709 131.056580,85.137741 130.946579,116.292992 
	C130.916824,124.720047 125.907791,129.912888 117.655899,129.933609 
	C85.502708,130.014389 53.349003,129.891907 20.775806,129.805344 
M77.161530,78.339493 
	C78.456436,79.634781 79.663940,81.034546 81.063156,82.205147 
	C84.797379,85.329254 87.054482,88.093033 84.501411,93.808678 
	C81.797951,99.861031 85.855865,107.437515 91.746078,110.775299 
	C97.398148,113.978119 105.527679,112.984283 109.796913,108.568558 
	C114.139435,104.077034 114.940582,96.031708 111.599022,90.471283 
	C108.101082,84.650612 100.415848,80.715218 94.500778,83.543526 
	C88.853554,86.243774 86.400330,83.507744 83.346962,80.187180 
	C81.995728,78.717690 80.532227,77.351349 79.117744,75.940132 
	C70.772049,67.613739 62.425785,59.287914 54.209457,51.091328 
	C59.069271,41.793262 58.099792,34.222946 51.726860,29.057997 
	C45.871307,24.312366 37.694794,24.424704 32.009140,29.328892 
	C26.316210,34.239353 24.918655,42.394104 28.676046,48.777576 
	C33.211308,56.482586 40.353748,57.959984 52.592838,53.474148 
	C60.523567,61.502579 68.592484,69.670898 77.161530,78.339493 
z"/>
<path fill="#F9FDFA" opacity="1.000000" stroke="none" 
	d="
M76.911469,78.089355 
	C68.592484,69.670898 60.523567,61.502579 52.592838,53.474148 
	C40.353748,57.959984 33.211308,56.482586 28.676046,48.777576 
	C24.918655,42.394104 26.316210,34.239353 32.009140,29.328892 
	C37.694794,24.424704 45.871307,24.312366 51.726860,29.057997 
	C58.099792,34.222946 59.069271,41.793262 54.209457,51.091328 
	C62.425785,59.287914 70.772049,67.613739 79.117744,75.940132 
	C80.532227,77.351349 81.995728,78.717690 83.346962,80.187180 
	C86.400330,83.507744 88.853554,86.243774 94.500778,83.543526 
	C100.415848,80.715218 108.101082,84.650612 111.599022,90.471283 
	C114.940582,96.031708 114.139435,104.077034 109.796913,108.568558 
	C105.527679,112.984283 97.398148,113.978119 91.746078,110.775299 
	C85.855865,107.437515 81.797951,99.861031 84.501411,93.808678 
	C87.054482,88.093033 84.797379,85.329254 81.063156,82.205147 
	C79.663940,81.034546 78.456436,79.634781 76.911469,78.089355 
z"/>
</svg>